<svg width="24" height="24" viewBox="0 0 24 24" fill="none" xmlns="http://www.w3.org/2000/svg">
<path fill-rule="evenodd" clip-rule="evenodd" d="M3.69224 5.53846V3.28165H3.07692C2.2839 3.28165 1.64103 3.92452 1.64103 4.71755V6.76925H22.1538V4.71755C22.1538 3.92452 21.511 3.28165 20.7179 3.28165H20.1025V5.53846H18.2563V3.28165H5.5384V5.53846H3.69224ZM18.2563 1.64062H5.5384V0H3.69224V1.64062H3.07692C1.37759 1.64062 0 3.01821 0 4.71755V20.9227C0 22.622 1.37759 23.9996 3.07692 23.9996H20.7179C22.4173 23.9996 23.7949 22.622 23.7949 20.9227V4.71755C23.7949 3.01821 22.4173 1.64062 20.7179 1.64062H20.1025V0H18.2563V1.64062ZM1.64103 8.61541V20.9227C1.64103 21.7157 2.2839 22.3586 3.07692 22.3586H20.7179C21.511 22.3586 22.1538 21.7157 22.1538 20.9227V8.61541H1.64103Z" fill="#AE0606"/>
<rect x="3.48682" y="10.873" width="1.84615" height="1.84615" fill="#AE0606"/>
<rect x="7.1792" y="10.873" width="1.84615" height="1.84615" fill="#AE0606"/>
<rect x="10.8716" y="10.873" width="1.84615" height="1.84615" fill="#AE0606"/>
<rect x="14.564" y="10.873" width="1.84615" height="1.84615" fill="#AE0606"/>
<rect x="18.2559" y="10.873" width="1.84615" height="1.84615" fill="#AE0606"/>
<rect x="3.48682" y="14.5625" width="1.84615" height="1.84615" fill="#AE0606"/>
<rect x="7.1792" y="14.5625" width="1.84615" height="1.84615" fill="#AE0606"/>
<rect x="10.8716" y="14.5625" width="1.84615" height="1.84615" fill="#AE0606"/>
<rect x="14.564" y="14.5625" width="1.84615" height="1.84615" fill="#AE0606"/>
<rect x="18.2559" y="14.5625" width="1.84615" height="1.84615" fill="#AE0606"/>
<rect x="3.48682" y="18.2559" width="1.84615" height="1.84615" fill="#AE0606"/>
<rect x="7.1792" y="18.2559" width="1.84615" height="1.84615" fill="#AE0606"/>
<rect x="10.8716" y="18.2559" width="1.84615" height="1.84615" fill="#AE0606"/>
<rect x="14.564" y="18.2559" width="1.84615" height="1.84615" fill="#AE0606"/>
</svg>
