<svg width="19" height="22" viewBox="0 0 19 22" fill="none" xmlns="http://www.w3.org/2000/svg">
<path fill-rule="evenodd" clip-rule="evenodd" d="M15.6687 1.99922L17.1772 3.31236C17.3855 3.49367 17.4074 3.80949 17.2261 4.01778L14.9281 6.65771L12.6653 4.688L14.9633 2.04807C15.1446 1.83979 15.4604 1.81792 15.6687 1.99922ZM10.549 4.83455L11.5339 3.70315L13.8319 1.06322C14.5571 0.23008 15.8204 0.142599 16.6536 0.867825L18.1621 2.18096C18.9952 2.90619 19.0827 4.16949 18.3575 5.00263L16.0595 7.64256L15.0746 8.77396L6.1522 19.0241C5.97437 19.2283 5.75689 19.3944 5.51296 19.5121L2.63901 20.8991C2.51563 20.9587 2.38559 21.0033 2.25163 21.032C1.13019 21.2722 0.0921195 20.3686 0.175493 19.2247C0.185451 19.0881 0.211694 18.9532 0.253663 18.8228L1.23131 15.7851C1.31429 15.5272 1.44877 15.2889 1.62661 15.0846L10.549 4.83455ZM13.9432 7.78911L5.0208 18.0392C4.97635 18.0903 4.92198 18.1318 4.86099 18.1612L1.98704 19.5482C1.97124 19.5559 1.95458 19.5616 1.93743 19.5652C1.7938 19.596 1.66085 19.4803 1.67152 19.3338C1.6728 19.3163 1.67616 19.299 1.68154 19.2823L2.65918 16.2446C2.67993 16.1801 2.71355 16.1206 2.75801 16.0695L11.6804 5.8194L13.9432 7.78911Z" fill="white"/>
</svg>
