<svg width="20" height="21" viewBox="0 0 20 21" fill="none" xmlns="http://www.w3.org/2000/svg">
<path fill-rule="evenodd" clip-rule="evenodd" d="M9.61051 0C8.72849 1.24621e-05 8.04529 0.392979 7.65716 0.728923H5.72767C4.91058 0.728923 4.34631 1.51201 4.63639 2.24339L5.7606 5.07794C4.71533 6.28858 3.29178 8.11963 2.12522 10.0224C1.49375 11.0524 0.928707 12.1177 0.541118 13.1269C0.157919 14.1247 -0.0748124 15.1256 0.0218937 16.0052C0.247776 18.0599 1.31171 19.2716 2.44795 19.9497C3.55 20.6075 4.69203 20.75 5.14429 20.75H9.61051H9.61055H14.0768C14.529 20.75 15.6711 20.6075 16.7731 19.9497C17.9093 19.2716 18.9733 18.0599 19.1992 16.0052C19.2959 15.1256 19.0631 14.1247 18.6799 13.1269C18.2923 12.1177 17.7273 11.0524 17.0958 10.0224C15.9293 8.11963 14.5057 6.28858 13.4605 5.07794L14.5847 2.24339C14.8747 1.51201 14.3105 0.728923 13.4934 0.728923H11.5639C11.1758 0.392979 10.4926 1.24621e-05 9.61055 0H9.61051ZM9.61055 19.4865H14.0768C14.335 19.4865 15.2231 19.386 16.075 18.8775C16.8928 18.3895 17.7067 17.5115 17.8868 15.873C17.9525 15.2753 17.797 14.4888 17.4414 13.5629C17.0903 12.6485 16.566 11.654 15.9578 10.662C14.7516 8.69447 13.25 6.79323 12.2288 5.63716H9.61054L9.61053 7.80002H9.8247V9.38324C10.2023 9.40657 10.6012 9.45905 11.0214 9.54069C11.4417 9.6165 11.7523 9.69814 11.9533 9.78561V11.4825H11.6061C11.3503 11.0743 11.0702 10.7449 10.7657 10.4941C10.4611 10.2375 10.1444 10.0772 9.81556 10.013V12.4272L10.1079 12.5672C10.5647 12.7888 10.9331 12.9841 11.2133 13.1532C11.4934 13.3165 11.731 13.5089 11.9259 13.7305C12.1208 13.9521 12.2182 14.2 12.2182 14.474H12.2273C12.2273 14.7598 12.0964 15.0659 11.8345 15.3925C11.5787 15.7132 11.259 15.9902 10.8753 16.2235C10.4977 16.4567 10.1475 16.5821 9.8247 16.5996V18.1653H9.61051H9.32224V16.5821C8.93246 16.5529 8.52441 16.5004 8.09809 16.4246C7.67176 16.3488 7.35811 16.2701 7.15713 16.1885V14.4915H7.50428C7.75398 14.8764 8.03414 15.1942 8.34474 15.445C8.65535 15.6899 8.98118 15.8532 9.32224 15.9348V13.4331C8.85938 13.2057 8.48787 13.0074 8.20771 12.8383C7.92756 12.6692 7.69003 12.4739 7.49514 12.2523C7.30025 12.0249 7.20281 11.7741 7.20281 11.5C7.20281 11.2318 7.31243 10.9431 7.53168 10.6341C7.75094 10.325 8.025 10.0539 8.35388 9.82059C8.68885 9.58734 9.01164 9.44447 9.32224 9.39199V7.80002H9.61051V5.63716H6.99225C5.97103 6.79323 4.46948 8.69447 3.2632 10.662C2.65503 11.654 2.13079 12.6485 1.77961 13.5629C1.42404 14.4888 1.26851 15.2753 1.33422 15.873C1.51436 17.5115 2.32827 18.3895 3.14601 18.8775C3.99794 19.386 4.88602 19.4865 5.14429 19.4865H9.61051H9.61055ZM9.61054 4.56807H12.2512L13.2727 1.99239H10.9682L10.7701 1.7553C10.6554 1.61799 10.2103 1.26348 9.61055 1.26347L9.61054 4.56807ZM9.61051 4.56807H6.96989L5.94835 1.99239H8.25281L8.45091 1.7553C8.56564 1.61799 9.01078 1.26348 9.61051 1.26347V4.56807ZM8.61881 11.6662C8.45437 11.4913 8.37215 11.3047 8.37215 11.1064C8.37215 10.809 8.45437 10.5612 8.61881 10.3629C8.78934 10.1588 9.02382 10.0393 9.32224 10.0043V12.1736C9.01773 12.0044 8.78325 11.8353 8.61881 11.6662ZM10.4733 15.8298C10.2906 15.9348 10.0744 15.9902 9.8247 15.996V13.6955C10.2206 13.8996 10.5251 14.095 10.7382 14.2816C10.9514 14.4624 11.058 14.6606 11.058 14.8764C11.058 15.0688 11.0062 15.2496 10.9027 15.4187C10.8052 15.5878 10.6621 15.7249 10.4733 15.8298Z" fill="#AE0606"/>
</svg>
